<svg xmlns="http://www.w3.org/2000/svg" xmlns:xlink="http://www.w3.org/1999/xlink" viewBox="0,0,256,256" width="48px" height="48px" fill-rule="nonzero"><g transform=""><g fill="none" fill-rule="nonzero" stroke="none" stroke-width="1" stroke-linecap="butt" stroke-linejoin="miter" stroke-miterlimit="10" stroke-dasharray="" stroke-dashoffset="0" font-family="none" font-weight="none" font-size="none" text-anchor="none" style="mix-blend-mode: normal"><g transform="scale(5.33333,5.33333)"><circle cx="24" cy="24" r="20" fill="#6aaf7c"></circle><path d="M32.658,30.247l-6.697,-5.86c0.025,-0.126 0.039,-0.254 0.039,-0.387c0,-0.738 -0.405,-1.376 -1,-1.723v-13.277c0,-0.553 -0.447,-1 -1,-1c-0.553,0 -1,0.447 -1,1v13.277c-0.595,0.346 -1,0.984 -1,1.723c0,1.105 0.896,2 2,2c0.224,0 0.436,-0.045 0.637,-0.113l6.704,5.866c0.19,0.166 0.425,0.247 0.659,0.247c0.278,0 0.555,-0.115 0.753,-0.342c0.363,-0.415 0.321,-1.047 -0.095,-1.411z" fill="#324561"></path></g></g></g></svg>